<?xml version="1.0" encoding="utf-8"?>
<!-- Generator: Adobe Illustrator 25.0.1, SVG Export Plug-In . SVG Version: 6.00 Build 0)  -->
<svg version="1.1" id="Capa_1" xmlns="http://www.w3.org/2000/svg" xmlns:xlink="http://www.w3.org/1999/xlink" x="0px" y="0px"
	 viewBox="0 0 28.26 24.64" style="enable-background:new 0 0 28.26 24.64;" xml:space="preserve">
<style type="text/css">
	.st0{fill:#FAB537;}
</style>
<g>
	<path class="st0" d="M25.1,7.45c-0.01-0.93-0.19-1.85-0.51-2.72c-0.58-1.48-1.75-2.66-3.23-3.23c-0.86-0.32-1.76-0.5-2.68-0.52
		c-1.18-0.05-1.55-0.07-4.55-0.07s-3.38,0-4.55,0.07C8.66,1.01,7.76,1.18,6.9,1.5C5.42,2.07,4.25,3.25,3.67,4.73
		c-0.32,0.86-0.5,1.76-0.51,2.68C3.1,8.59,3.09,8.96,3.09,11.96s0,3.38,0.07,4.55c0.02,0.92,0.19,1.82,0.51,2.68
		c0.58,1.48,1.75,2.65,3.23,3.23c0.85,0.33,1.76,0.52,2.68,0.55c1.18,0.05,1.56,0.07,4.55,0.07s3.38,0,4.55-0.07
		c0.92-0.02,1.82-0.19,2.68-0.51c1.48-0.58,2.65-1.75,3.23-3.23c0.32-0.86,0.5-1.76,0.51-2.68c0.05-1.18,0.07-1.55,0.07-4.55
		C25.17,9,25.17,8.62,25.1,7.45z M14.12,17.62c-3.13,0-5.67-2.54-5.67-5.67s2.54-5.67,5.67-5.67c3.13,0,5.67,2.54,5.67,5.67
		S17.25,17.62,14.12,17.62z M20.02,7.4c-0.73,0-1.32-0.59-1.32-1.32s0.59-1.32,1.32-1.32c0.73,0,1.32,0.59,1.32,1.32
		S20.75,7.4,20.02,7.4z"/>
	<path class="st0" d="M14.12,15.64c2.03,0,3.68-1.65,3.68-3.68c0-2.03-1.65-3.68-3.68-3.68c-2.03,0-3.68,1.65-3.68,3.68
		C10.44,13.99,12.09,15.64,14.12,15.64z"/>
</g>
</svg>
