<?xml version="1.0" encoding="utf-8"?>
<!-- Generator: Adobe Illustrator 25.0.1, SVG Export Plug-In . SVG Version: 6.00 Build 0)  -->
<svg version="1.1" id="Capa_1" xmlns="http://www.w3.org/2000/svg" xmlns:xlink="http://www.w3.org/1999/xlink" x="0px" y="0px"
	 viewBox="0 0 28.26 24.64" style="enable-background:new 0 0 28.26 24.64;" xml:space="preserve">
<style type="text/css">
	.st0{fill:#FAB537;}
</style>
<path class="st0" d="M26.86,5.95c-0.31-1.14-1.2-2.04-2.34-2.34c-2.08-0.57-10.39-0.58-10.39-0.58S5.83,3.02,3.75,3.56
	c-1.11,0.3-2.03,1.22-2.34,2.36C0.86,8,0.86,12.31,0.86,12.31s-0.01,4.33,0.54,6.39c0.31,1.14,1.2,2.03,2.34,2.34
	c2.1,0.57,10.39,0.58,10.39,0.58s8.31,0.01,10.39-0.53c1.14-0.31,2.03-1.2,2.34-2.34c0.55-2.08,0.55-6.38,0.55-6.38
	S27.43,8.03,26.86,5.95z M11.48,16.3l0.01-7.96l6.91,3.99L11.48,16.3z"/>
</svg>
