<?xml version="1.0" encoding="utf-8"?>
<!-- Generator: Adobe Illustrator 25.0.1, SVG Export Plug-In . SVG Version: 6.00 Build 0)  -->
<svg version="1.1" id="Capa_1" xmlns="http://www.w3.org/2000/svg" xmlns:xlink="http://www.w3.org/1999/xlink" x="0px" y="0px"
	 viewBox="0 0 1000 1000" style="enable-background:new 0 0 1000 1000;" xml:space="preserve">
<style type="text/css">
	.st0{fill:#F9B437;}
</style>
<g>
	<g>
		<path class="st0" d="M325.73,634.12c-22.91,33.9-37.39,65.15-42.6,77.23c-10.99-3.54-36.35-12.13-52.96-21.4
			c-20.62-11.51-29.53-17.19-39.37-25.31c10.73-24.53,47.08-100.36,111.81-165.46c-0.1,2.24-0.1,4.48-0.1,6.67
			C302.51,552.31,310.32,595.95,325.73,634.12z"/>
		<g>
			<path class="st0" d="M656.38,534.29c-5.88-2.92-12.08-5.73-18.49-8.38c-95.93-39.48-153.32-20.99-204.67,6.87
				c-0.42-40.2,2.4-83.12,7.76-122.75c64.32-22.03,138.89-24.11,216.44,10.88C657.58,457.73,657.32,497.21,656.38,534.29z"/>
		</g>
		<g>
			<g>
				<path class="st0" d="M881.57,209.94c-32.97-21.3-95.83-54.58-167.33-54.58c0,0-0.05,0-0.1,0
					c-51.66,0.05-223.42,13.7-265.81,188.58c-14.17,58.64-21.67,137.44-19.53,205.66c2.6,82.81,20.21,139.42,52.29,168.32
					c14.32,12.81,31.51,20.1,51.35,21.72c-32.55,8.54-68.54,10.21-109.47,5.26c-14.17-8.7-28.12-19.79-41.4-33.02
					c-84.32-84.16-98.33-241.91-34.84-392.62c86.19-204.67,257.84-237.06,378.62-202.59C796.01,136.82,852.67,182.81,881.57,209.94z
					"/>
			</g>
		</g>
		<g>
			<path class="st0" d="M794.32,268.42c0,0,19.88,195.69-8.83,332.22c-9.57,45.51-33.49,82.22-53.41,105.89
				C594.5,870.08,376.6,826.89,260.34,757.57c-93.86-55.96-142.7-157.33-142.7-157.33s64.34,91.2,165.52,118.04
				c94.49,25.07,205.5,61.15,306.01,5.53c27.68-15.32,67.14-70.83,70.78-147.29c6.01-126.25,0-308.1,0-308.1H794.32z"/>
		</g>
		<g>
			<path class="st0" d="M810.9,783.02c-22.65,57.13-64.84,100.88-91.03,124.1c21.82-27.91,53.28-77.49,59.21-137.07
				c3.75-37.81,0.16-75.36-10.47-108.85c9.84-20.1,18.18-42.86,21.56-59.16c3.65-17.29,6.82-36.56,9.06-54.84
				C838.76,616.68,843.09,701.88,810.9,783.02z"/>
		</g>
	</g>
</g>
</svg>
