<?xml version="1.0" encoding="utf-8"?>
<!-- Generator: Adobe Illustrator 25.0.1, SVG Export Plug-In . SVG Version: 6.00 Build 0)  -->
<svg version="1.1" id="Capa_1" xmlns="http://www.w3.org/2000/svg" xmlns:xlink="http://www.w3.org/1999/xlink" x="0px" y="0px"
	 viewBox="0 0 1000 1000" style="enable-background:new 0 0 1000 1000;" xml:space="preserve">
<style type="text/css">
	.st0{fill:#110E0B;}
	.st1{fill:#F9B437;}
</style>
<g>
	<g>
		<g>
			<g>
				<path class="st0" d="M251.37,556.41h-40.8V408.44h40.8v70.49c12.6-9.66,24.37-20.38,35.3-32.16
					c10.93-11.78,20.33-24.59,28.21-38.43h27.85c-7.26,12.4-15.59,23.98-24.97,34.73c-9.39,10.76-19.59,20.72-30.62,29.9
					l59.09,83.44h-42.54l-44.49-62.89c-1.3,0.89-2.59,1.75-3.85,2.57c-1.27,0.82-2.59,1.64-3.96,2.47V556.41z"/>
				<path class="st0" d="M400.89,408.44c-1.85,5.55-3.46,11.29-4.83,17.21c-1.37,5.93-2.5,11.85-3.39,17.78
					c-0.89,5.93-1.56,11.77-2,17.52c-0.45,5.75-0.67,11.2-0.67,16.34c0,3.77,0.02,8,0.05,12.69c0.03,4.69,0.31,9.47,0.82,14.33
					c0.51,4.87,1.35,9.61,2.52,14.23c1.16,4.62,2.89,8.75,5.19,12.38c2.29,3.63,5.24,6.54,8.84,8.73c3.6,2.19,8.07,3.29,13.41,3.29
					c4.73,0,8.79-0.8,12.18-2.41c3.39-1.61,6.27-3.79,8.63-6.53c2.36-2.74,4.25-5.89,5.65-9.45c1.4-3.56,2.5-7.3,3.29-11.2
					c0.79-3.9,1.3-7.86,1.54-11.87c0.24-4.01,0.36-7.83,0.36-11.46v-81.59h40.8v75.22c0,10.76-1.71,20.76-5.14,30.01
					c-3.43,9.25-8.26,17.28-14.49,24.1c-6.23,6.82-13.77,12.16-22.61,16.03c-8.84,3.87-18.63,5.81-29.39,5.81
					c-7.4,0-14.28-1.04-20.65-3.13s-12.21-4.97-17.52-8.63c-5.31-3.66-10.04-8.02-14.18-13.05c-4.15-5.04-7.6-10.53-10.38-16.49
					s-4.88-12.24-6.32-18.86c-1.44-6.61-2.09-13.31-1.95-20.09v-2.05c0.07-5.48,0.62-11.15,1.64-17.01
					c1.03-5.86,2.41-11.73,4.16-17.62c1.75-5.89,3.85-11.73,6.32-17.52s5.21-11.36,8.22-16.7H400.89z"/>
				<path class="st0" d="M543.93,556.41h-18.91V408.44h26.51l89.92,101.63V408.44h18.8v147.97h-26.51l-89.81-101.53V556.41z"/>
				<path class="st0" d="M762.19,556.41H721.4V427.35h-40.28v-18.91h121.36v18.91h-40.28V556.41z"/>
			</g>
		</g>
		<g>
			<path class="st0" d="M959.55,485.43v1.95c-0.16,5.75-0.75,11.71-1.82,17.89c-1.04,6.15-2.54,12.33-4.47,18.5
				c-1.9,6.15-4.2,12.25-6.87,18.29c-1.28,2.86-2.62,5.67-4.04,8.42c-0.05,0.13-0.11,0.29-0.21,0.43
				c-22.97,47.41-60.11,60.99-94.68,54.09c-29.89-5.96-52.43-27.54-53.8-28.9c1.58,0.99,27.11,16.98,56.28,18.61
				c20.43,1.15,39.71-5.27,49.39-16.68c0.59-0.7,1.23-1.66,1.93-2.81c1.6-3.02,3.1-6.2,4.49-9.57c1.95-4.79,3.72-9.76,5.29-14.97
				c1.58-5.19,2.91-10.53,4.06-16.02c1.12-5.48,2.06-10.94,2.81-16.34c0.75-5.43,1.34-10.75,1.71-15.99
				c0.37-5.24,0.56-10.21,0.56-14.95c0-2.54,0-5.35-0.03-8.37c-0.45-14.87-2.14-27.89-4.28-35.46
				c-4.6-16.26-16.76-21.58-27.38-21.74c-4.39,0.11-8.16,0.91-11.31,2.43c-3.4,1.6-6.28,3.77-8.64,6.47
				c-2.38,2.7-4.25,5.83-5.64,9.39c-1.42,3.58-2.51,7.33-3.32,11.26c-0.78,3.96-1.28,7.91-1.52,11.93
				c-0.24,4.01-0.37,7.78-0.37,11.36v28.66H902v16.95H857.7v35.96h-40.78v-75.22c0-10.75,1.71-20.75,5.13-30
				c3.42-9.25,8.26-17.27,14.55-24.09c6.26-6.82,13.8-12.17,22.59-16.04c8.8-3.88,18.61-5.8,29.44-5.8c7.33,0,14.2,1.04,20.62,3.13
				c6.39,2.09,12.25,4.97,17.51,8.64c5.27,3.66,9.97,8.02,14.12,13.05c3.32,4.04,6.2,8.37,8.64,13c0.03,0.03,0.05,0.05,0.05,0.11
				c0.59,1.12,1.15,2.25,1.68,3.4c2.59,5.59,4.63,11.44,6.04,17.65c0.05,0.16,0.08,0.29,0.11,0.45c0.08,0.27,0.13,0.53,0.19,0.8
				C959.01,471.93,959.68,478.64,959.55,485.43z"/>
		</g>
		<path class="st0" d="M143.03,408.5h41.1v75.78c0,10.83-1.74,20.91-5.19,30.22c-3.45,9.31-8.32,17.41-14.6,24.28
			c-6.28,6.87-13.85,12.25-22.76,16.15c-8.9,3.88-18.77,5.83-29.6,5.83c-7.46,0-14.39-1.04-20.8-3.16c-6.42-2.09-12.3-5-17.65-8.69
			c-5.35-3.69-10.13-8.08-14.31-13.16c-4.17-5.05-7.65-10.59-10.46-16.61c-2.78-5.99-4.89-12.33-6.36-18.99
			c-1.44-6.66-2.09-13.4-1.95-20.24v-2.06c0.05-5.54,0.61-11.23,1.66-17.14c1.02-5.91,2.43-11.82,4.17-17.76
			c1.76-5.94,3.9-11.82,6.39-17.65c2.46-5.83,8.77-16.82,8.77-16.82c25.75-43.43,68.64-52.84,102.5-43.16
			c30.43,8.66,51.61,33.37,51.61,33.37s-24.76-20.72-55.06-20.7c-26.5,0.03-61.21,10.35-73.91,46.29c-0.13,0.51-0.27,1.04-0.37,1.55
			c-1.39,5.96-2.54,11.93-3.42,17.89c-0.91,5.96-1.58,11.85-2.01,17.65c-0.45,5.8-0.7,11.28-0.7,16.47c0,3.8,0.03,8.05,0.05,12.78
			c0.05,4.73,0.32,9.55,0.83,14.44c0.53,4.89,1.36,9.68,2.54,14.33c1.18,4.65,2.91,8.82,5.24,12.46c2.3,3.66,5.27,6.6,8.88,8.8
			c3.64,2.22,8.13,3.32,13.53,3.32c4.76,0,8.85-0.8,12.25-2.43c3.42-1.6,6.31-3.8,8.69-6.58c2.38-2.75,4.28-5.91,5.7-9.52
			c1.42-3.58,2.54-7.35,3.32-11.28c0.8-3.93,1.31-7.92,1.55-11.95s0.37-7.89,0.37-11.53V408.5z"/>
	</g>
	<g>
		<g>
			<path class="st1" d="M231.55,634.96c2.61,0,4.8-0.74,6.56-2.21c1.77-1.47,2.72-3.38,2.87-5.72h3.6c-0.1,2.07-0.75,3.95-1.94,5.66
				c-1.19,1.7-2.77,3.04-4.75,4c-1.97,0.96-4.09,1.44-6.35,1.44c-4.45,0-7.98-1.55-10.58-4.64c-2.6-3.09-3.9-7.25-3.9-12.47v-1.13
				c0-3.34,0.58-6.3,1.75-8.87c1.17-2.57,2.85-4.55,5.03-5.95c2.18-1.4,4.74-2.1,7.66-2.1c3.72,0,6.78,1.11,9.2,3.32
				c2.41,2.21,3.7,5.13,3.87,8.74h-3.6c-0.17-2.65-1.12-4.79-2.87-6.42c-1.74-1.63-3.94-2.44-6.6-2.44c-3.38,0-6.01,1.22-7.88,3.67
				c-1.87,2.44-2.8,5.87-2.8,10.28v1.1c0,4.32,0.93,7.7,2.8,10.12C225.51,633.75,228.14,634.96,231.55,634.96z"/>
			<path class="st1" d="M269.95,638.12c-2.88,0-5.49-0.71-7.82-2.13s-4.14-3.4-5.44-5.94c-1.3-2.54-1.94-5.38-1.94-8.54v-1.35
				c0-3.26,0.63-6.19,1.9-8.81c1.26-2.61,3.02-4.66,5.28-6.16c2.26-1.49,4.7-2.24,7.33-2.24c4.12,0,7.38,1.41,9.79,4.21
				c2.41,2.81,3.62,6.65,3.62,11.52v2.1h-24.19v0.72c0,3.84,1.1,7.05,3.31,9.6c2.2,2.56,4.98,3.84,8.32,3.84
				c2.01,0,3.78-0.37,5.31-1.1c1.54-0.73,2.93-1.9,4.18-3.51l2.35,1.79C279.2,636.13,275.2,638.12,269.95,638.12z M269.26,606.16
				c-2.82,0-5.2,1.03-7.13,3.1c-1.93,2.07-3.11,4.85-3.52,8.34h20.34v-0.41c-0.1-3.26-1.03-5.91-2.79-7.96
				C274.4,607.19,272.1,606.16,269.26,606.16z"/>
			<path class="st1" d="M310.39,606.79c-0.79-0.15-1.64-0.22-2.54-0.22c-2.34,0-4.32,0.65-5.94,1.96c-1.62,1.31-2.77,3.2-3.46,5.69
				v23.28h-3.73v-33.91h3.67l0.06,5.39c1.98-4.01,5.17-6.02,9.56-6.02c1.04,0,1.87,0.14,2.48,0.41L310.39,606.79z"/>
			<path class="st1" d="M332.19,632.33l10.31-28.74h3.85l-12.66,33.91h-3.04l-12.72-33.91h3.85L332.19,632.33z"/>
			<path class="st1" d="M370.37,638.12c-2.88,0-5.49-0.71-7.82-2.13s-4.14-3.4-5.44-5.94c-1.3-2.54-1.94-5.38-1.94-8.54v-1.35
				c0-3.26,0.63-6.19,1.9-8.81c1.26-2.61,3.02-4.66,5.28-6.16c2.26-1.49,4.7-2.24,7.33-2.24c4.12,0,7.38,1.41,9.79,4.21
				c2.41,2.81,3.62,6.65,3.62,11.52v2.1h-24.19v0.72c0,3.84,1.1,7.05,3.31,9.6c2.2,2.56,4.98,3.84,8.32,3.84
				c2.01,0,3.78-0.37,5.31-1.1c1.54-0.73,2.93-1.9,4.18-3.51l2.35,1.79C379.62,636.13,375.62,638.12,370.37,638.12z M369.69,606.16
				c-2.82,0-5.2,1.03-7.13,3.1c-1.93,2.07-3.11,4.85-3.52,8.34h20.34v-0.41c-0.1-3.26-1.03-5.91-2.79-7.96
				C374.82,607.19,372.53,606.16,369.69,606.16z"/>
			<path class="st1" d="M397.62,634.33h22.03v3.17h-26.67v-2.76l20.56-27.89h-19.93v-3.26h24.66v2.82L397.62,634.33z"/>
			<path class="st1" d="M452.51,637.5c-0.38-1.07-0.62-2.64-0.72-4.73c-1.32,1.71-2.99,3.03-5.03,3.96
				c-2.04,0.93-4.19,1.39-6.47,1.39c-3.26,0-5.9-0.91-7.91-2.73c-2.02-1.82-3.02-4.12-3.02-6.89c0-3.3,1.37-5.91,4.12-7.83
				c2.75-1.92,6.58-2.88,11.48-2.88h6.8v-3.85c0-2.42-0.75-4.33-2.24-5.72c-1.49-1.39-3.67-2.08-6.53-2.08c-2.61,0-4.77,0.67-6.49,2
				c-1.71,1.34-2.57,2.95-2.57,4.83l-3.76-0.03c0-2.7,1.25-5.03,3.76-7c2.51-1.97,5.59-2.96,9.24-2.96c3.78,0,6.76,0.95,8.95,2.84
				c2.18,1.89,3.31,4.53,3.37,7.91v16.04c0,3.28,0.34,5.73,1.03,7.36v0.38H452.51z M440.73,634.8c2.51,0,4.75-0.61,6.72-1.82
				c1.97-1.21,3.41-2.83,4.31-4.86v-7.46h-6.71c-3.74,0.04-6.66,0.73-8.77,2.05c-2.11,1.33-3.17,3.15-3.17,5.47
				c0,1.9,0.71,3.48,2.12,4.73C436.64,634.18,438.47,634.8,440.73,634.8z"/>
			<path class="st1" d="M511.99,637.5c-0.38-1.07-0.62-2.64-0.72-4.73c-1.32,1.71-2.99,3.03-5.03,3.96
				c-2.04,0.93-4.19,1.39-6.47,1.39c-3.26,0-5.9-0.91-7.91-2.73c-2.02-1.82-3.02-4.12-3.02-6.89c0-3.3,1.37-5.91,4.12-7.83
				c2.75-1.92,6.58-2.88,11.48-2.88h6.8v-3.85c0-2.42-0.75-4.33-2.24-5.72c-1.49-1.39-3.67-2.08-6.53-2.08c-2.61,0-4.77,0.67-6.49,2
				c-1.71,1.34-2.57,2.95-2.57,4.83l-3.76-0.03c0-2.7,1.25-5.03,3.76-7c2.51-1.97,5.59-2.96,9.24-2.96c3.78,0,6.76,0.95,8.95,2.84
				c2.18,1.89,3.31,4.53,3.37,7.91v16.04c0,3.28,0.34,5.73,1.03,7.36v0.38H511.99z M500.21,634.8c2.51,0,4.75-0.61,6.72-1.82
				c1.97-1.21,3.41-2.83,4.31-4.86v-7.46h-6.71c-3.74,0.04-6.66,0.73-8.77,2.05c-2.11,1.33-3.17,3.15-3.17,5.47
				c0,1.9,0.71,3.48,2.12,4.73C496.12,634.18,497.95,634.8,500.21,634.8z"/>
			<path class="st1" d="M545.38,606.79c-0.79-0.15-1.64-0.22-2.54-0.22c-2.34,0-4.32,0.65-5.94,1.96c-1.62,1.31-2.77,3.2-3.46,5.69
				v23.28h-3.73v-33.91h3.67l0.06,5.39c1.98-4.01,5.17-6.02,9.56-6.02c1.04,0,1.87,0.14,2.48,0.41L545.38,606.79z"/>
			<path class="st1" d="M563.45,594.91v8.68h7.02v3.07h-7.02v22.62c0,1.88,0.34,3.28,1.02,4.2c0.68,0.92,1.81,1.38,3.4,1.38
				c0.63,0,1.64-0.1,3.04-0.31l0.16,3.04c-0.98,0.35-2.32,0.53-4.01,0.53c-2.57,0-4.44-0.75-5.61-2.24
				c-1.17-1.49-1.75-3.69-1.75-6.6v-22.62h-6.24v-3.07h6.24v-8.68H563.45z"/>
			<path class="st1" d="M596.12,638.12c-2.88,0-5.49-0.71-7.82-2.13c-2.33-1.42-4.14-3.4-5.44-5.94c-1.29-2.54-1.94-5.38-1.94-8.54
				v-1.35c0-3.26,0.63-6.19,1.9-8.81c1.26-2.61,3.02-4.66,5.28-6.16c2.26-1.49,4.7-2.24,7.33-2.24c4.12,0,7.38,1.41,9.79,4.21
				c2.41,2.81,3.62,6.65,3.62,11.52v2.1h-24.19v0.72c0,3.84,1.1,7.05,3.31,9.6c2.2,2.56,4.98,3.84,8.32,3.84
				c2.01,0,3.78-0.37,5.31-1.1s2.93-1.9,4.18-3.51l2.35,1.79C605.36,636.13,601.36,638.12,596.12,638.12z M595.43,606.16
				c-2.82,0-5.2,1.03-7.13,3.1c-1.93,2.07-3.11,4.85-3.53,8.34h20.34v-0.41c-0.1-3.26-1.03-5.91-2.79-7.96
				C600.57,607.19,598.27,606.16,595.43,606.16z"/>
			<path class="st1" d="M641.19,628.88c0-1.86-0.75-3.35-2.24-4.48c-1.49-1.13-3.75-2.01-6.75-2.65c-3.01-0.64-5.34-1.37-7-2.19
				c-1.66-0.82-2.89-1.83-3.7-3.02c-0.8-1.19-1.21-2.63-1.21-4.32c0-2.67,1.12-4.88,3.35-6.63c2.23-1.74,5.1-2.62,8.59-2.62
				c3.78,0,6.82,0.93,9.1,2.8c2.29,1.87,3.43,4.31,3.43,7.32h-3.76c0-1.98-0.83-3.63-2.49-4.95c-1.66-1.32-3.75-1.97-6.28-1.97
				c-2.47,0-4.45,0.55-5.94,1.64c-1.49,1.1-2.24,2.52-2.24,4.28c0,1.69,0.62,3,1.86,3.93c1.24,0.93,3.51,1.78,6.8,2.55
				s5.75,1.6,7.4,2.48c1.64,0.88,2.86,1.93,3.65,3.17s1.19,2.73,1.19,4.48c0,2.86-1.16,5.15-3.46,6.86
				c-2.31,1.71-5.32,2.57-9.04,2.57c-3.95,0-7.15-0.96-9.6-2.87c-2.46-1.91-3.68-4.33-3.68-7.25h3.76c0.15,2.19,1.07,3.9,2.77,5.12
				c1.7,1.22,3.95,1.83,6.75,1.83c2.61,0,4.72-0.57,6.33-1.72C640.39,632.09,641.19,630.64,641.19,628.88z"/>
			<path class="st1" d="M679.54,637.5c-0.38-1.07-0.62-2.64-0.72-4.73c-1.32,1.71-2.99,3.03-5.03,3.96
				c-2.04,0.93-4.19,1.39-6.47,1.39c-3.26,0-5.9-0.91-7.91-2.73c-2.02-1.82-3.02-4.12-3.02-6.89c0-3.3,1.37-5.91,4.12-7.83
				s6.58-2.88,11.49-2.88h6.8v-3.85c0-2.42-0.75-4.33-2.24-5.72c-1.49-1.39-3.67-2.08-6.53-2.08c-2.61,0-4.77,0.67-6.49,2
				c-1.71,1.34-2.57,2.95-2.57,4.83l-3.76-0.03c0-2.7,1.25-5.03,3.76-7c2.51-1.97,5.59-2.96,9.24-2.96c3.78,0,6.76,0.95,8.95,2.84
				c2.18,1.89,3.31,4.53,3.37,7.91v16.04c0,3.28,0.34,5.73,1.03,7.36v0.38H679.54z M667.75,634.8c2.51,0,4.75-0.61,6.72-1.82
				c1.97-1.21,3.41-2.83,4.31-4.86v-7.46h-6.71c-3.74,0.04-6.66,0.73-8.77,2.05c-2.11,1.33-3.17,3.15-3.17,5.47
				c0,1.9,0.71,3.48,2.12,4.73C663.66,634.18,665.5,634.8,667.75,634.8z"/>
			<path class="st1" d="M700.83,603.59l0.12,5.8c1.27-2.09,2.86-3.68,4.76-4.78c1.9-1.1,4-1.64,6.3-1.64c3.64,0,6.34,1.02,8.12,3.07
				c1.78,2.05,2.67,5.12,2.7,9.21v22.25h-3.73v-22.28c-0.02-3.03-0.66-5.29-1.93-6.77c-1.26-1.48-3.29-2.22-6.06-2.22
				c-2.32,0-4.37,0.73-6.16,2.18s-3.11,3.41-3.96,5.88v23.22h-3.73v-33.91H700.83z"/>
			<path class="st1" d="M758.66,637.5c-0.38-1.07-0.62-2.64-0.72-4.73c-1.32,1.71-2.99,3.03-5.03,3.96
				c-2.04,0.93-4.19,1.39-6.47,1.39c-3.26,0-5.9-0.91-7.91-2.73c-2.02-1.82-3.02-4.12-3.02-6.89c0-3.3,1.37-5.91,4.12-7.83
				s6.58-2.88,11.49-2.88h6.8v-3.85c0-2.42-0.75-4.33-2.24-5.72c-1.49-1.39-3.67-2.08-6.53-2.08c-2.61,0-4.77,0.67-6.49,2
				c-1.71,1.34-2.57,2.95-2.57,4.83l-3.76-0.03c0-2.7,1.25-5.03,3.76-7c2.51-1.97,5.59-2.96,9.24-2.96c3.78,0,6.76,0.95,8.95,2.84
				c2.18,1.89,3.31,4.53,3.37,7.91v16.04c0,3.28,0.34,5.73,1.03,7.36v0.38H758.66z M746.88,634.8c2.51,0,4.75-0.61,6.72-1.82
				c1.97-1.21,3.41-2.83,4.31-4.86v-7.46h-6.71c-3.74,0.04-6.66,0.73-8.77,2.05c-2.11,1.33-3.17,3.15-3.17,5.47
				c0,1.9,0.71,3.48,2.12,4.73C742.79,634.18,744.62,634.8,746.88,634.8z"/>
			<path class="st1" d="M780.58,637.5h-3.76v-48.13h3.76V637.5z"/>
		</g>
	</g>
</g>
</svg>
