<?xml version="1.0" encoding="utf-8"?>
<!-- Generator: Adobe Illustrator 25.0.1, SVG Export Plug-In . SVG Version: 6.00 Build 0)  -->
<svg version="1.1" id="Capa_1" xmlns="http://www.w3.org/2000/svg" xmlns:xlink="http://www.w3.org/1999/xlink" x="0px" y="0px"
	 viewBox="0 0 28.26 24.64" style="enable-background:new 0 0 28.26 24.64;" xml:space="preserve">
<style type="text/css">
	.st0{fill:#FAB537;}
</style>
<g>
	<path class="st0" d="M7.4,5.91l2.1-3.67h9.55l2.1,3.67c0.4,0.06,0.8,0.17,1.19,0.31c0.15,0.04,0.29,0.1,0.44,0.17l-2.89-5.03
		c-0.1-0.19-0.29-0.29-0.5-0.29H9.14c-0.21,0-0.4,0.1-0.5,0.29L5.75,6.39c0.15-0.06,0.29-0.1,0.44-0.17
		C6.59,6.08,6.98,5.97,7.4,5.91z"/>
	<path class="st0" d="M19.05,18.9h-2.18c-0.27,0.44-0.57,0.84-0.86,1.19h3.37c0.21,0,0.4-0.1,0.5-0.29l3.1-5.38
		c-0.38-0.1-0.78-0.23-1.15-0.38L19.05,18.9z"/>
	<path class="st0" d="M9.5,18.9l-2.79-4.88c-0.38,0.15-0.78,0.27-1.15,0.38l3.08,5.41c0.1,0.19,0.29,0.29,0.5,0.29h3.37
		c-0.29-0.36-0.59-0.75-0.86-1.19H9.5z"/>
	<path class="st0" d="M17.21,16.47c0.15-0.38,0.25-0.78,0.34-1.19h-6.54c0.08,0.42,0.19,0.82,0.34,1.19H17.21z"/>
	<path class="st0" d="M17.61,12.89h-6.66c-0.04,0.31-0.08,0.71-0.06,1.19h6.79C17.69,13.6,17.65,13.2,17.61,12.89z"/>
	<path class="st0" d="M11.89,17.66c0.52,0.96,1.13,1.78,1.63,2.37l0.75,3.04l0.75-3.04c0.5-0.59,1.13-1.4,1.63-2.37H11.89z"/>
	<path class="st0" d="M22.09,6.98c-1.78-0.61-3.77-0.44-5.64-0.21c-0.13-0.59-0.42-0.94-0.8-1.13c0.15-0.19,0.23-0.4,0.23-0.65
		c0-0.69-0.71-1.26-1.59-1.26S12.7,4.29,12.7,4.99c0,0.23,0.08,0.46,0.23,0.65c-0.38,0.19-0.67,0.52-0.8,1.13
		C10.27,6.54,8.28,6.35,6.5,6.98c-4.88,1.7-6.26,4.92-4.61,6.14c3.06,2.2,7.73-1.4,10.37-3.9c0.1,0.31,0.21,0.61,0.36,0.88
		c-0.67,0.42-1.07,1.03-1.32,1.59h5.99c-0.25-0.57-0.65-1.19-1.32-1.59c0.15-0.25,0.27-0.57,0.36-0.88c2.64,2.49,7.33,6.1,10.37,3.9
		C28.36,11.92,26.97,8.67,22.09,6.98z"/>
</g>
</svg>
