<?xml version="1.0" encoding="utf-8"?>
<!-- Generator: Adobe Illustrator 25.0.1, SVG Export Plug-In . SVG Version: 6.00 Build 0)  -->
<svg version="1.1" id="Capa_1" xmlns="http://www.w3.org/2000/svg" xmlns:xlink="http://www.w3.org/1999/xlink" x="0px" y="0px"
	 viewBox="0 0 28.26 24.64" style="enable-background:new 0 0 28.26 24.64;" xml:space="preserve">
<style type="text/css">
	.st0{fill:#FAB537;}
</style>
<path class="st0" d="M23.81,4.48h-2.38V2.15c0-0.64-0.53-1.16-1.19-1.16H3.6c-0.66,0-1.19,0.52-1.19,1.16v17.43
	c0,1.92,1.6,3.49,3.57,3.49h11.89c1.97,0,3.57-1.56,3.57-3.49v-1.16h2.38c1.31,0,2.38-1.04,2.38-2.32V6.8
	C26.18,5.52,25.12,4.48,23.81,4.48z M9.54,17.26H7.16V5.64h2.38V17.26z M16.67,17.26H14.3V5.64h2.38V17.26z M23.81,16.1h-2.38V6.8
	h2.38V16.1z"/>
</svg>
