<?xml version="1.0" encoding="utf-8"?>
<!-- Generator: Adobe Illustrator 25.0.1, SVG Export Plug-In . SVG Version: 6.00 Build 0)  -->
<svg version="1.1" id="Capa_1" xmlns="http://www.w3.org/2000/svg" xmlns:xlink="http://www.w3.org/1999/xlink" x="0px" y="0px"
	 viewBox="0 0 919.1 244.8" style="enable-background:new 0 0 919.1 244.8;" xml:space="preserve">
<style type="text/css">
	.st0{fill:#110E0B;}
</style>
<g>
	<g>
		<g>
			<g>
				<path class="st0" d="M210.9,194.6h-40.8v-148h40.8v70.5c12.6-9.7,24.4-20.4,35.3-32.2s20.3-24.6,28.2-38.4h27.9
					c-7.3,12.4-15.6,24-25,34.7c-9.4,10.8-19.6,20.7-30.6,29.9l59.1,83.4h-42.5l-44.5-62.9c-1.3,0.9-2.6,1.8-3.9,2.6
					c-1.3,0.8-2.6,1.6-4,2.5L210.9,194.6L210.9,194.6z"/>
				<path class="st0" d="M360.5,46.6c-1.9,5.5-3.5,11.3-4.8,17.2c-1.4,5.9-2.5,11.9-3.4,17.8s-1.6,11.8-2,17.5
					c-0.5,5.8-0.7,11.2-0.7,16.3c0,3.8,0,8,0,12.7s0.3,9.5,0.8,14.3c0.5,4.9,1.4,9.6,2.5,14.2c1.2,4.6,2.9,8.8,5.2,12.4
					c2.3,3.6,5.2,6.5,8.8,8.7s8.1,3.3,13.4,3.3c4.7,0,8.8-0.8,12.2-2.4c3.4-1.6,6.3-3.8,8.6-6.5c2.4-2.7,4.2-5.9,5.6-9.5
					s2.5-7.3,3.3-11.2c0.8-3.9,1.3-7.9,1.5-11.9c0.2-4,0.4-7.8,0.4-11.5V46.6h40.8v75.2c0,10.8-1.7,20.8-5.1,30
					c-3.4,9.2-8.3,17.3-14.5,24.1c-6.2,6.8-13.8,12.2-22.6,16c-8.8,3.9-18.6,5.8-29.4,5.8c-7.4,0-14.3-1-20.6-3.1s-12.2-5-17.5-8.6
					c-5.3-3.7-10-8-14.2-13c-4.1-5-7.6-10.5-10.4-16.5s-4.9-12.2-6.3-18.9c-1.4-6.6-2.1-13.3-2-20.1v-2c0.1-5.5,0.6-11.1,1.6-17
					c1-5.9,2.4-11.7,4.2-17.6c1.8-5.9,3.9-11.7,6.3-17.5s5.2-11.4,8.2-16.7L360.5,46.6L360.5,46.6z"/>
				<path class="st0" d="M503.5,194.6h-18.9v-148h26.5L601,148.2V46.6h18.8v148h-26.5L503.5,93V194.6z"/>
				<path class="st0" d="M721.8,194.6H681V65.5h-40.3V46.6H762v18.9h-40.3L721.8,194.6L721.8,194.6z"/>
			</g>
		</g>
		<g>
			<path class="st0" d="M919.1,123.6v2c-0.2,5.8-0.8,11.7-1.8,17.9c-1,6.1-2.5,12.3-4.5,18.5c-1.9,6.2-4.2,12.2-6.9,18.3
				c-1.3,2.9-2.6,5.7-4,8.4c0,0.1-0.1,0.3-0.2,0.4c-23,47.4-60.1,61-94.7,54.1c-29.9-6-52.4-27.5-53.8-28.9c1.6,1,27.1,17,56.3,18.6
				c20.4,1.2,39.7-5.3,49.4-16.7c0.6-0.7,1.2-1.7,1.9-2.8c1.6-3,3.1-6.2,4.5-9.6c2-4.8,3.7-9.8,5.3-15c1.6-5.2,2.9-10.5,4.1-16
				c1.1-5.5,2.1-10.9,2.8-16.3c0.8-5.4,1.3-10.8,1.7-16s0.6-10.2,0.6-15c0-2.5,0-5.4,0-8.4c-0.5-14.9-2.1-27.9-4.3-35.5
				c-4.6-16.3-16.8-21.6-27.4-21.7c-4.4,0.1-8.2,0.9-11.3,2.4c-3.4,1.6-6.3,3.8-8.6,6.5c-2.4,2.7-4.2,5.8-5.6,9.4
				c-1.4,3.6-2.5,7.3-3.3,11.3c-0.8,4-1.3,7.9-1.5,11.9c-0.2,4-0.4,7.8-0.4,11.4v28.7h44.3v16.9h-44.3v36h-40.8v-75.2
				c0-10.8,1.7-20.8,5.1-30s8.3-17.3,14.5-24.1c6.3-6.8,13.8-12.2,22.6-16c8.8-3.9,18.6-5.8,29.4-5.8c7.3,0,14.2,1,20.6,3.1
				c6.4,2.1,12.2,5,17.5,8.6c5.3,3.7,10,8,14.1,13c3.3,4,6.2,8.4,8.6,13c0,0,0,0,0,0.1c0.6,1.1,1.2,2.2,1.7,3.4
				c2.6,5.6,4.6,11.4,6,17.6c0,0.2,0.1,0.3,0.1,0.5c0.1,0.3,0.1,0.5,0.2,0.8C918.6,110.1,919.2,116.8,919.1,123.6z"/>
		</g>
		<path class="st0" d="M102.6,46.6h41.1v75.8c0,10.8-1.7,20.9-5.2,30.2s-8.3,17.4-14.6,24.3c-6.3,6.9-13.9,12.2-22.8,16.2
			c-8.9,3.9-18.8,5.8-29.6,5.8c-7.5,0-14.4-1-20.8-3.2c-6.4-2.1-12.3-5-17.7-8.7S23,179,18.8,173.9c-4.2-5-7.7-10.6-10.5-16.6
			c-2.8-6-4.9-12.3-6.4-19c-1.4-6.7-2.1-13.4-2-20.2V116c0-5.5,0.6-11.2,1.7-17.1c1-5.9,2.4-11.8,4.2-17.8
			c1.8-5.9,3.9-11.8,6.4-17.6c2.5-5.8,8.8-16.8,8.8-16.8C46.8,3.2,89.6-6.2,123.5,3.5c30.4,8.7,51.6,33.4,51.6,33.4
			s-24.8-20.7-55.1-20.7c-26.5,0-61.2,10.4-73.9,46.3c-0.1,0.5-0.3,1-0.4,1.5c-1.4,6-2.5,11.9-3.4,17.9c-0.9,6-1.6,11.9-2,17.6
			c-0.4,5.8-0.7,11.3-0.7,16.5c0,3.8,0,8,0.1,12.8c0.1,4.7,0.3,9.5,0.8,14.4c0.5,4.9,1.4,9.7,2.5,14.3c1.2,4.7,2.9,8.8,5.2,12.5
			c2.3,3.7,5.3,6.6,8.9,8.8c3.6,2.2,8.1,3.3,13.5,3.3c4.8,0,8.8-0.8,12.2-2.4c3.4-1.6,6.3-3.8,8.7-6.6c2.4-2.8,4.3-5.9,5.7-9.5
			c1.4-3.6,2.5-7.3,3.3-11.3c0.8-3.9,1.3-7.9,1.6-12s0.4-7.9,0.4-11.5V46.6z"/>
	</g>
</g>
</svg>
